<svg width="406" height="384" viewBox="0 0 406 384" fill="none" xmlns="http://www.w3.org/2000/svg">
<path d="M63.4 2.39999C48.6 6.29999 37.5 12.6 25.6 23.9C13.9 35.2 5.8 49.2 2 65.2C0.1 73.2 0 77.1 0 192C0 306.9 0.1 310.8 2 318.8C5.8 334.8 14.1 349.1 26.1 360.6C37.7 371.6 50.1 378.4 65.2 382C73.2 383.9 77.1 384 192 384C306.9 384 310.8 383.9 318.8 382C334.8 378.2 349.1 369.9 360.6 357.9C371.6 346.3 378.4 333.9 382 318.8C383.9 311 384 307 384 249.7C384 195.7 383.8 188.5 382.4 185.7C377.9 176.9 368.5 172.1 358.8 173.6C353.3 174.5 346.1 179.7 343.6 184.5C341.6 188.4 341.5 190.3 341 248C340.5 307.3 340.5 307.5 338.2 313.3C333.8 324.2 324.2 333.8 313.2 338.2L307.5 340.5H192H76.5L70.7 338.2C59.8 333.8 50.2 324.2 45.8 313.2L43.5 307.5V192V76.5L45.8 70.7C50.2 59.8 59.8 50.2 70.7 45.9L76.5 43.5L138.2 43L199.8 42.5L204.2 39.5C217.7 29.9 216.5 9.39999 201.9 1.99999C198.2 0.0999943 195.9 -5.72205e-06 135.3 -5.72205e-06C72.7 0.0999943 72.5 0.0999943 63.4 2.39999Z" fill="#F5F5F5"/>
<path d="M375 22.6C372.7 23.5 340 55.6 281.8 113.8L192 203.5L155.8 167.3C135.8 147.5 118 130.4 116.1 129.5C110.9 126.9 102.1 127.2 96.3 130.1C89.5 133.6 85.7 139.3 85.2 147C84.4 158.2 83.3 156.9 134.7 208.2C181 254.3 181.6 254.8 186.8 255.9C190.5 256.7 193.5 256.7 197.3 255.9L202.5 254.8L302.3 155.2C357.2 100.3 402.8 54.3 403.6 52.8C409.1 42.4 404.1 27.7 393.6 22.9C388.6 20.6 379.9 20.5 375 22.6Z" fill="#F5F5F5"/>
</svg>
